<svg width="27" height="25" viewBox="0 0 27 25" fill="none" xmlns="http://www.w3.org/2000/svg">
<rect x="0.799805" y="0.800049" width="26" height="24" rx="6.6" class="icon-background"/>
<path fill-rule="evenodd" clip-rule="evenodd" d="M5.0178 5.77072C4.7998 6.15116 4.7998 6.64894 4.7998 7.64449V8.19027L22.7898 6.73605C22.7708 6.30227 22.7198 6.01249 22.5818 5.77072C22.3901 5.43622 22.0841 5.16427 21.7078 4.99383C21.2798 4.80005 20.7198 4.80005 19.5998 4.80005H7.9998C6.8798 4.80005 6.3198 4.80005 5.8918 4.99383C5.5155 5.16427 5.20955 5.43622 5.0178 5.77072ZM22.7998 8.52094L17.9348 8.91383L20.4408 20.7956C21.0328 20.784 21.4038 20.744 21.7078 20.6063C22.0841 20.4358 22.3901 20.1639 22.5818 19.8294C22.7998 19.4489 22.7998 18.9512 22.7998 17.9556V8.52094ZM18.4078 20.8L15.9338 9.0756L4.7998 9.97516V17.9556C4.7998 18.9512 4.7998 19.4489 5.0178 19.8294C5.20955 20.1639 5.5155 20.4358 5.8918 20.6063C6.3198 20.8 6.8798 20.8 7.9998 20.8H18.4078ZM14.2998 15.4934C14.2998 17.4116 12.1598 18.7592 11.2268 19.256C11.0978 19.3248 10.9502 19.3612 10.7998 19.3612C10.6494 19.3612 10.5018 19.3248 10.3728 19.256C9.4398 18.7592 7.2998 17.4116 7.2998 15.4925C7.2998 13.6107 8.9958 12.3556 10.7998 12.3556C12.6668 12.3556 14.2998 13.6107 14.2998 15.4934Z" class="icon-map" />
<path d="M11.3623 15.8C11.811 15.8 12.1748 15.4643 12.1748 15.05C12.1748 14.6358 11.811 14.3 11.3623 14.3C10.9136 14.3 10.5498 14.6358 10.5498 15.05C10.5498 15.4643 10.9136 15.8 11.3623 15.8Z" class="icon-map"/>
</svg>
