<svg width="24" height="22" viewBox="0 0 24 22" fill="none" xmlns="http://www.w3.org/2000/svg">
<rect x="0.799805" y="0.300049" width="23" height="21" rx="4" class="icon-background"/>
<path fill-rule="evenodd" clip-rule="evenodd" d="M3.5178 3.77072C3.2998 4.15116 3.2998 4.64894 3.2998 5.64449V6.19027L21.2898 4.73605C21.2708 4.30227 21.2198 4.01249 21.0818 3.77072C20.8901 3.43622 20.5841 3.16427 20.2078 2.99383C19.7798 2.80005 19.2198 2.80005 18.0998 2.80005H6.4998C5.3798 2.80005 4.8198 2.80005 4.3918 2.99383C4.0155 3.16427 3.70955 3.43622 3.5178 3.77072ZM21.2998 6.52094L16.4348 6.91383L18.9408 18.7956C19.5328 18.784 19.9038 18.744 20.2078 18.6063C20.5841 18.4358 20.8901 18.1639 21.0818 17.8294C21.2998 17.4489 21.2998 16.9512 21.2998 15.9556V6.52094ZM16.9078 18.8L14.4338 7.0756L3.2998 7.97516V15.9556C3.2998 16.9512 3.2998 17.4489 3.5178 17.8294C3.70955 18.1639 4.0155 18.4358 4.3918 18.6063C4.8198 18.8 5.3798 18.8 6.4998 18.8H16.9078ZM12.7998 13.4934C12.7998 15.4116 10.6598 16.7592 9.7268 17.256C9.59782 17.3248 9.45022 17.3612 9.2998 17.3612C9.14938 17.3612 9.00179 17.3248 8.8728 17.256C7.9398 16.7592 5.7998 15.4116 5.7998 13.4925C5.7998 11.6107 7.4958 10.3556 9.2998 10.3556C11.1668 10.3556 12.7998 11.6107 12.7998 13.4934Z" class="icon-map"/>
<path d="M10.1436 13.425C10.5405 13.425 10.8623 13.1312 10.8623 12.7688C10.8623 12.4064 10.5405 12.1125 10.1436 12.1125C9.7466 12.1125 9.4248 12.4064 9.4248 12.7688C9.4248 13.1312 9.7466 13.425 10.1436 13.425Z" class="icon-map"/>
</svg>
